<svg width="338" height="71" viewBox="0 0 338 71" fill="none" xmlns="http://www.w3.org/2000/svg">
<path d="M337.5 35.5C337.5 37.7779 336.403 40.0523 334.208 42.3056C332.012 44.5607 328.746 46.76 324.497 48.8704C316 53.0902 303.672 56.9045 288.398 60.113C257.858 66.5282 215.644 70.5 169 70.5C122.356 70.5 80.1418 66.5282 49.6017 60.113C34.3276 56.9045 22.0001 53.0902 13.5033 48.8704C9.25393 46.76 5.98843 44.5607 3.79163 42.3056C1.5966 40.0523 0.5 37.7779 0.5 35.5C0.5 33.2221 1.5966 30.9477 3.79163 28.6944C5.98843 26.4393 9.25393 24.24 13.5033 22.1296C22.0001 17.9098 34.3276 14.0955 49.6017 10.887C80.1418 4.4718 122.356 0.5 169 0.5C215.644 0.5 257.858 4.4718 288.398 10.887C303.672 14.0955 316 17.9098 324.497 22.1296C328.746 24.24 332.012 26.4393 334.208 28.6944C336.403 30.9477 337.5 33.2221 337.5 35.5Z" stroke="black"/>
</svg>
